/* XPM */
static char *c2bcc5a6fa6c4056c6e3880538de6acevaHz6OaoBzVVLbs0[] = {
/* columns rows colors chars-per-pixel */
"38 38 118 2 ",
"   c #322219",
".  c #33241A",
"X  c #37281C",
"o  c #392A1E",
"O  c #3B2C20",
"+  c #3F2F23",
"@  c #3A2B24",
"#  c #433326",
"$  c #453328",
"%  c #423428",
"&  c #443428",
"*  c #44362E",
"=  c #483629",
"-  c #47382B",
";  c #46382D",
":  c #48382D",
">  c #4B3C2F",
",  c #493B31",
"<  c #4B3D33",
"1  c #663E3B",
"2  c #6E3F3A",
"3  c #4F4136",
"4  c #504237",
"5  c #504339",
"6  c #53453A",
"7  c #56473B",
"8  c #5D493D",
"9  c #69413D",
"0  c #6C433F",
"q  c #72433B",
"w  c #7A423B",
"e  c #5D4B46",
"r  c #5D4F48",
"t  c #6E4E46",
"y  c #625347",
"u  c #61514A",
"i  c #65554B",
"p  c #68564A",
"a  c #6D574C",
"s  c #72564C",
"d  c #76574E",
"f  c #6B5B51",
"g  c #705B52",
"h  c #813F39",
"j  c #81443E",
"k  c #8A4138",
"l  c #8D4138",
"z  c #89483E",
"x  c #944236",
"c  c #9A4436",
"v  c #9E4435",
"b  c #93473A",
"n  c #90463C",
"m  c #904B3F",
"M  c #974B3F",
"N  c #9E4D3B",
"B  c #994F3E",
"V  c #AB4633",
"C  c #A84534",
"Z  c #A64936",
"A  c #B34632",
"S  c #B64731",
"D  c #BA4731",
"F  c #BF4830",
"G  c #A6513E",
"H  c #A8503C",
"J  c #C04B33",
"K  c #C2543B",
"L  c #CF663C",
"P  c #874E43",
"I  c #804D47",
"U  c #874F46",
"Y  c #8F4F41",
"T  c #8D5347",
"R  c #82514A",
"E  c #895348",
"W  c #925243",
"Q  c #935344",
"!  c #905447",
"~  c #9A5344",
"^  c #985445",
"/  c #956457",
"(  c #9C6C52",
")  c #9C6C5D",
"_  c #AB6B48",
"`  c #B26447",
"'  c #BF6540",
"]  c #BC724A",
"[  c #A06353",
"{  c #A06453",
"}  c #A66B59",
"|  c #DA8453",
" . c #DD8F5F",
".. c #CA8265",
"X. c #CC886B",
"o. c #D08062",
"O. c #D48D6C",
"+. c #DE9768",
"@. c #E1A475",
"#. c #E1A87B",
"$. c #C4A387",
"%. c #C9A98B",
"&. c #D2B493",
"*. c #D4B695",
"=. c #D5B896",
"-. c #E3AD80",
";. c #E5BA8E",
":. c #E8C69B",
">. c #E8C89D",
",. c #E7C7A0",
"<. c #E7CFA7",
"1. c #E8C8A0",
"2. c #E9CDA3",
"3. c #EACEA4",
"4. c #E7CFA8",
"5. c #EAD1A7",
"6. c #EBD2A9",
"7. c #EBD4AB",
/* pixels */
"O O O O O O O O O O O O O O O O O O O O O O O O O O O O O O O O O O O O O o ",
"+ + + + + + + + + + + + + + + + + + + + + + + + + + + + + + + + + + + + + + ",
"                                                                            ",
"# # # # # # # # # # # # # # # # # # # # # # # # # # # # # # # # # # # # # # ",
"# # # # # # # # # # # # # # # # # # # # # # # # # # # # # # # # # # # # # # ",
"+ + # # # # # # # # # # # # # # # # # # # # # # # # # # # # # # # # # # + + ",
"  . O O O O O O O O O O O O O O O O O O O O O O O O O O O O O O O O O o     ",
"# # # # # # # # # # # # # # # # & y p y > # # # # # # # # # # # # # # # # # ",
"# # # # # # # # # # # # # # # # = ( ] _ 7 # # # # # # # # # # # # # # # # # ",
"+ + # # # # # # # # # # # # # # i ` L ' a : # # # # # # # # # # # # # # + + ",
"  . O O O O O O O O O O o o o o g B Z N s ; o o O O O O O O O O O O O o     ",
"# # # # # # # # # # # # # o o o $ U x w 7 + # o # # # # # # # # # # # # # # ",
"# # # # # # # # # # # # # o o o + ~ A w 5 o # o # # # # # # # # # # # # # # ",
"+ + # # # # # # # # # + + X X i a H D b f r : o + + + # # # # # # # # # + + ",
"  . O O O O O O O O o       u G F F F D c z e @     . O O O O O O O O o     ",
"# # # # # # # # # # # # # f G F F F F F F S m u % o # # # # # # # # # # # # ",
"# # # # # # # # # # # # # Q F J o.O.O.O.o.K V q < o # # # # # # # # # # # # ",
"+ + # # # # # # # # # + + W v ..1.5.5.5.,.X.M 0 , o + # # # # # # # # # + + ",
"  . O O O O O O O O o     Y h =.6.-.@.-.3.&.R 1 *   . O O O O O O O O o     ",
"# # # # # # # # # # # # # W h =.6.-.| #.3.&.R 0 6 # # # # # # # # # # # # # ",
"# # # # # # # # # # # # # W h =.7.2. .:.7.&.R 0 6 # # # # # # # # # # # # # ",
"+ + # # # # # # # # # + + W h =.7.3.+.>.7.&.R 9 4 + + # # # # # # # # # + + ",
"  . O O O O O O O O o     Y h =.7.6.;.3.7.&.R 1 *   . O O O O O O O O o     ",
"# # # # # # # # # # # # # Q h =.7.7.7.7.7.&.R 9 5 o # # # # # # # # # # # # ",
"# # # # # # # # # # # # # Q h $.<.7.7.7.4.$.I 9 5 o # # # # # # # # # # # # ",
"+ + # # # # # # # # # + + W l / %.*.*.*.%.) j 9 3 o + # # # # # # # # # + + ",
"  . O O O O O O O O o     P C k { } } } [ n x 2 *   . O O O O O O O O o     ",
"# # # # # # # # # # # # # d ^ T E E E E E T ! t 4 # # # # # # # # # # # # # ",
"# # # # # # # # # # # # # 7 8 8 8 8 8 8 8 8 8 5 - # # # # # # # # # # # # # ",
"+ + # # # # # # # # # # # # # # # # # # # # # # # # # # # # # # # # # # + + ",
"  . O O O O O O O O O O O O O O O O O O O O O O O O O O O O O O O O O o     ",
"# # # # # # # # # # # # # # # # # # # # # # # # # # # # # # # # # # # # # # ",
"# # # # # # # # # # # # # # # # # # # # # # # # # # # # # # # # # # # # # # ",
"+ + # # # # # # # # # # # # # # # # # # # # # # # # # # # # # # # # # # + + ",
"  . O O O O O O O O O O O O O O O O O O O O O O O O O O O O O O O O O o     ",
"# # # # # # # # # # # # # # # # # # # # # # # # # # # # # # # # # # # # # # ",
"# # # # # # # # # # # # # # # # # # # # # # # # # # # # # # # # # # # # # # ",
"+ + + + + + + + + + + + + + + + + + + + + + + + + + + + + + + + + + + + + O "
};
