/* XPM */
static char *collect[] = {
/* columns rows colors chars-per-pixel */
"32 32 203 2 ",
"   c #35261B",
".  c #35251C",
"X  c #36261C",
"o  c #36271C",
"O  c #36271D",
"+  c #37271D",
"@  c #37281D",
"#  c #38281D",
"$  c #38291D",
"%  c #38281E",
"&  c #38291E",
"*  c #39291E",
"=  c #38291F",
"-  c #39291F",
";  c #392A1E",
":  c #392A1F",
">  c #3A2A1F",
",  c #3A2B1F",
"<  c #3B2B1F",
"1  c #3A2B20",
"2  c #3B2B20",
"3  c #3F2A20",
"4  c #3F2B21",
"5  c #3A2C20",
"6  c #3B2C20",
"7  c #3B2C21",
"8  c #3A2C22",
"9  c #3C2C20",
"0  c #3C2C21",
"q  c #3C2D21",
"w  c #3D2D21",
"e  c #3D2E21",
"r  c #3D2D22",
"t  c #3D2E22",
"y  c #3E2E22",
"u  c #3E2F22",
"i  c #3E2F23",
"p  c #3F2F23",
"a  c #3F3023",
"s  c #3E3025",
"d  c #3E3125",
"f  c #3F3125",
"g  c #422D22",
"h  c #403024",
"j  c #403124",
"k  c #413124",
"l  c #403125",
"z  c #413125",
"x  c #413225",
"c  c #423225",
"v  c #403126",
"b  c #413227",
"n  c #423226",
"m  c #433226",
"M  c #423326",
"N  c #433326",
"B  c #423327",
"V  c #463125",
"C  c #433427",
"Z  c #443426",
"A  c #443427",
"S  c #493427",
"D  c #443429",
"F  c #453629",
"G  c #47362A",
"H  c #4A3528",
"J  c #4B3629",
"K  c #4C372A",
"L  c #49382B",
"P  c #493A2E",
"I  c #4A3B2E",
"U  c #4B3B2F",
"Y  c #4C3C2F",
"T  c #4D3C2F",
"R  c #4C3831",
"E  c #4F3B33",
"W  c #4D3C32",
"Q  c #4F3C33",
"!  c #4C3E34",
"~  c #513D32",
"^  c #503C33",
"/  c #503D35",
"(  c #523E35",
")  c #504035",
"_  c #554337",
"`  c #544138",
"'  c #554039",
"]  c #564239",
"[  c #574339",
"{  c #55453A",
"}  c #59463A",
"|  c #58443C",
" . c #6F433F",
".. c #624D3E",
"X. c #72413C",
"o. c #70433F",
"O. c #79443B",
"+. c #7E443B",
"@. c #7C453D",
"#. c #7E463C",
"$. c #7E483B",
"%. c #7A4A3F",
"&. c #7D4A3F",
"*. c #654E43",
"=. c #6B4C42",
"-. c #6C4F44",
";. c #714540",
":. c #714541",
">. c #774F44",
",. c #784F44",
"<. c #6E5443",
"1. c #7E5043",
"2. c #7B5044",
"3. c #785346",
"4. c #705248",
"5. c #7B5D4A",
"6. c #87473B",
"7. c #86473C",
"8. c #87483C",
"9. c #864A3F",
"0. c #88493D",
"q. c #894A3E",
"w. c #8C4B3E",
"e. c #964639",
"r. c #96493B",
"t. c #93493D",
"y. c #934C3D",
"u. c #9B483A",
"i. c #9E4F3D",
"p. c #B8452F",
"a. c #BE462E",
"s. c #BF462E",
"d. c #A44534",
"f. c #A94837",
"g. c #B74833",
"h. c #B04A36",
"j. c #B84A33",
"k. c #B94A33",
"l. c #B6563A",
"z. c #B3533E",
"x. c #C4573D",
"c. c #884D41",
"v. c #924C42",
"b. c #8D5041",
"n. c #8A5445",
"m. c #8D5E47",
"M. c #945A47",
"N. c #945548",
"B. c #92584D",
"V. c #995A4D",
"C. c #A45840",
"Z. c #9A6355",
"A. c #9F6B5B",
"S. c #A86545",
"D. c #B5614C",
"F. c #A06656",
"G. c #A06756",
"H. c #A16757",
"J. c #A16857",
"K. c #A57B69",
"L. c #C65D43",
"P. c #C26E47",
"I. c #C96A4E",
"U. c #CA6A4E",
"Y. c #CA6B4F",
"T. c #AE816C",
"R. c #AC8570",
"E. c #AC8571",
"W. c #B18771",
"Q. c #BB937A",
"!. c #DD9161",
"~. c #D59574",
"^. c #E09F71",
"/. c #DAA17F",
"(. c #E3AD7F",
"). c #CFAD8E",
"_. c #D0AE8F",
"`. c #D1AF8F",
"'. c #D9BD9A",
"]. c #E3B184",
"[. c #E4B184",
"{. c #E6B98D",
"}. c #E7BD91",
"|. c #E7BF93",
" X c #E3BC95",
".X c #E4BD96",
"XX c #DEC49F",
"oX c #E2C59F",
"OX c #E4C69F",
"+X c #E8C499",
"@X c #E9CA9F",
"#X c #E3CAA3",
"$X c #E5C9A1",
"%X c #E5CDA5",
"&X c #E5CDA6",
"*X c #E9CDA4",
"=X c #EACFA5",
"-X c #EBD1A8",
";X c #EBD3A9",
":X c #EAD3AA",
">X c #EAD3AB",
",X c #EAD4AB",
"<X c #ECD4AB",
/* pixels */
"q q q q q q q q q q q q q q q q q q q q q q q q q q q q q q q 6 ",
"> > > > > > > > > > > > > > > > > > > > > > > > > > > > > > > > ",
"> > > > > > > > > > > > > > > > > > > > > > > > > > > > > > > > ",
"Z Z Z Z Z Z Z Z Z Z Z Z Z Z Z Z Z Z Z Z Z Z Z Z Z Z Z Z Z Z Z Z ",
"p j M M M M M M M M M M M M n n n M M M M M M M M M M M M M h p ",
"X * e e e e e e e e e e e e f b v y e e e e e e e e e e e q # X ",
"M M M M M M M M M M M M M m ..5.<.I n M M M M M M M M M M M M M ",
"x c N N N N N N N N N N M U m.P.S.} A N N N N N N N N N N N n x ",
"+ > i i i i i i i u t e 9 { M.l.C.*.B w u i i i i i i i i y * + ",
"y p k k k k k k k k a ; $ D %.e.#._ l 6 p k k k k k k k k j p y ",
"N N N N N N N N N N c ; , d $.f.O.! l e j N N N N N N N N N N N ",
"9 y z z z z z z k r 2 o ~ 3.i.g.r.4.| s < 0 t z z z z z z k r 9 ",
"% 2 u u u u u u t : - Q b.j.s.a.p.d.9.' 8   , u u u u u u t : % ",
"N N N N N N N N N N L n.k.x.I.Y.U.L.h.&.W q N N N N N N N N N N ",
"h k N N N N N N N j S y.z.~. X.X X/.D.+.^ 7 j N N N N N N N k h ",
"X * t e e e e e q + 3 6.J.oX|.(.{.OXT.o.R O & t e e e e e q @ . ",
"x c n n n n n n n x H 0.A.#X}.!.[.$XE.:.] C c n n n n n n n c x ",
"c n N N N N N N N n J 0.A.#X=X^.+X%XR.;.[ C n N N N N N N N M c ",
"% 2 a a a a a a i : g 7.A.#X-X].@X%XR. .E 1 2 a a a a a a i > % ",
"0 y h h h h h h a w V 8.A.#X<X*X;X&XR. ./ : t h h h h h h a r 0 ",
"N N N N N N N N N N K q.Z.'.:X,X>XXXK.o.` t N N N N N N N N N N ",
"r p c c c c c c x y V w.v.W.).`._.Q.B.X.( 5 u c c c c c c x i r ",
"+ : t t t t t t w % 4 c.u.N.F.H.G.V.t.@.E = : t t t t t t w & + ",
"N N N N N N N N N N G -.1.,.>.>.>.,.2.=.) A N N N N N N N N N N ",
"k x N N N N N N N N A I Y T T T T T T P F N N N N N N N N N x k ",
"X * y t t t t t t t t w w w w w w w w w t t t t t t t t t w # X ",
"j k c c c c c c c c c c c c c c c c c c c c c c c c c c c x k j ",
"M m N N N N N N N N N N N N N N N N N N N N N N N N N N N N N M ",
": 0 h h h h h h h h h h h h h h h h h h h h h h h h h h h a 2 : ",
"2 q a a a a a a a a a a a a a a a a a a a a a a a a a a a i 9 1 ",
"N N N N N N N N N N N N N N N N N N N N N N N N N N N N N N N N ",
"h h h h h h h h h h h h h h h h h h h h h h h h h h h h h h h t "
};
