/* XPM */
static char * collect_xpm[] = {
"32 32 7 1",
" 	c #7D6812",
".	c #816C17",
"+	c #FF8D9E",
"@	c #FF4D67",
"#	c #D6455E",
"$	c #705C1F",
"%	c #746021",
"   . .    . . .          .      ",
"                       .   .  ..",
"         .                     .",
"       .        .       .     . ",
"..        .               .     ",
"         .         . .     .  . ",
"          .     .   ++ .       .",
"        .. .   .  . +++.       .",
"       .  .  .     +@++     .   ",
"         . . .    ++++@     . . ",
"         ..        +++++   .    ",
"     .           ++++++      .  ",
"               . ++++++         ",
"      .  .      ++++++++   .    ",
"  .  .  .  . . +++++++++        ",
".            .  +++++++++  .. . ",
" . ..    .  .. +++++++++  .  .  ",
"               +++++++++        ",
".         .  +++++++++++        ",
"            . +++++++++++  .    ",
" ...        . ++++####+++    .  ",
".             #########++.  .  .",
"          #############+++.     ",
".  .  ################+++++.    ",
".  ################+++++++   . .",
"  #############+++++++++++      ",
"  #########  ++++++++++++..     ",
"  .#### .   $%$$+++++++$$+$     ",
"           %$$+$$+$$$%$$+$$%    ",
"           $$$$$$$$$$$$$$%$$ .  ",
"            $$$$$$$%%$$$$$$     ",
".       .. .   $$$%$$$$$ ..     "};
