/* XPM */
static char *door[] = {
/* columns rows colors chars-per-pixel */
"32 32 36 1 ",
"  c #141412",
". c #151615",
"X c #181A1B",
"o c #191C1E",
"O c #231717",
"+ c #281818",
"@ c #30221E",
"# c #1D2124",
"$ c #332520",
"% c #352820",
"& c #3B2E21",
"* c #3D3122",
"= c #2B3037",
"- c #2C3239",
"; c #2E353E",
": c #423424",
"> c #4A3728",
", c #4D3A28",
"< c #523D2A",
"1 c #313B47",
"2 c #343C45",
"3 c #38414E",
"4 c #384350",
"5 c #394554",
"6 c #3E4958",
"7 c #404D5E",
"8 c #425164",
"9 c #48596E",
"0 c #4E6077",
"q c #4F627A",
"w c #56687E",
"e c #576C87",
"r c #607897",
"t c #6680A1",
"y c #7390B5",
"u c #7998BF",
/* pixels */
"           0rrrrrrrr0           ",
"         rryuuuuuuuuyrr         ",
"       rruut96666669tuurr       ",
"      ruut93;======;39tuur      ",
"XXXXX0uu93;===####===;39uu0XXXX ",
"ooooqrt9;==#XX....XX#==;9trqooo ",
"oooqrr8;=#X.        .X#=;8rrqoo ",
"oo1rr8;=#.  OOO  OOO  .#=;8rr1o ",
"..err;=X. OO+@@OO@@+OO .X=;rre. ",
"00rr3=#  O@@+$$++$$+@@O  #=3rr00",
"rrrr=#. O@$$+$$++$$+$$@O .#=rrrr",
"8888=. O+$$$+&&++&&+$$$+O .=8888",
"5555# O++&&&+**@@**+&&&++O #5555",
";;;;. @@+%%%+,,$$,,+%%%+@@ .;;;;",
"XXXX O$$+&&&+<<$$<<+&&&+$$O XXXX",
"--XX @$$+***+<<$$<<+***+$$@ XX--",
"22oo $$$+,,,@<<$$<<@,,,+$$$ oo22",
"44ooO&&&+<<<$<<$$<<$<<<+&&&Ooo44",
"00oo+***+<<<$<<$$<<$<<<+%%%+oo00",
"wwoo+,,,+<<<$<<$$<<$<<<+>>>+ooww",
"wwoo+<<<@<<<$<<$$<<$<<<@<<<+ooww",
"wwoo+<<<$<<<$<<$$<<$<<<$<<<+ooww",
"wwoo+<<<$<<<$<<$$<<$<<<$<<<+ooww",
"wwoo+<<<$<<<$<<$$<<$<<<$<<<+ooww",
"wwoo+<<<$<<<$<<$$<<$<<<$<<<+ooww",
"77oo+<<<$<<<$<<$$<<$<<<$<<<+oo77",
"00oo+<<<$:::$<<$$<<$:::$<<<+oo00",
"77oo+<<<$,,,$<<$$<<$,,,$<<<+oo77",
"00oo+:::$:::$::$$::$:::$:::+oo00",
"77oo+,,,$***$,,$$,,$***$,,,+oo77",
"55oo+:::$***$::$$::$***$:::+oo55",
"55oo+***$***$**$$**$***$***+oo55"
};
