/* XPM */
static char *player_down[] = {
/* columns rows colors chars-per-pixel */
"32 32 161 2 ",
"   c #06040D",
".  c #160D0C",
"X  c #12130F",
"o  c #1A120E",
"O  c #090717",
"+  c #130C13",
"@  c #140F1F",
"#  c #0F1511",
"$  c #07161A",
"%  c #121513",
"&  c #1E1412",
"*  c #111816",
"=  c #191A14",
"-  c #2C0F19",
";  c #221514",
":  c #251C17",
">  c #291D16",
",  c #23171B",
"<  c #261C18",
"1  c #2F1E1D",
"2  c #1D221D",
"3  c #2D221A",
"4  c #2D2317",
"5  c #34251C",
"6  c #36291E",
"7  c #3A2A1F",
"8  c #0B0A20",
"9  c #150F20",
"0  c #1D1026",
"q  c #1B1531",
"w  c #131237",
"e  c #251823",
"r  c #281831",
"t  c #2C173F",
"y  c #271D3C",
"u  c #082426",
"i  c #08242B",
"p  c #0D2B2A",
"a  c #112524",
"s  c #0D2D36",
"d  c #1F213D",
"f  c #0C3A3E",
"g  c #332421",
"h  c #392626",
"j  c #3D2E21",
"k  c #3D272B",
"l  c #3D2829",
"z  c #3F3023",
"x  c #22243F",
"c  c #36233E",
"v  c #4E1D33",
"b  c #571C34",
"n  c #402B2A",
"m  c #423225",
"M  c #473037",
"N  c #4E3437",
"B  c #513637",
"V  c #503538",
"C  c #0E413D",
"Z  c #171447",
"A  c #19174C",
"S  c #1B1A44",
"D  c #1B1855",
"F  c #1D1B58",
"G  c #211D5C",
"H  c #341A50",
"J  c #113A41",
"K  c #23264D",
"L  c #262A51",
"P  c #25265F",
"I  c #2D2251",
"U  c #272665",
"Y  c #2A2A67",
"T  c #2B2C6A",
"R  c #3B286E",
"E  c #392864",
"W  c #403E5A",
"Q  c #5A3E58",
"!  c #75244A",
"~  c #73325B",
"^  c #48246D",
"/  c #452367",
"(  c #453268",
")  c #0E4342",
"_  c #0F4C4C",
"`  c #0C4449",
"'  c #114C4D",
"]  c #1E424A",
"[  c #10514B",
"{  c #1B4D50",
"}  c #115451",
"|  c #125C56",
" . c #2F4552",
".. c #394854",
"X. c #14645A",
"o. c #374C60",
"O. c #504E5F",
"+. c #734550",
"@. c #734B52",
"#. c #7A4E58",
"$. c #5B4662",
"%. c #584070",
"&. c #464968",
"*. c #785364",
"=. c #7E5575",
"-. c #576978",
";. c #61616F",
":. c #636465",
">. c #72626E",
",. c #63657B",
"<. c #82224D",
"1. c #883561",
"2. c #983165",
"3. c #A72A61",
"4. c #B22E69",
"5. c #814A5B",
"6. c #87525F",
"7. c #87585D",
"8. c #8A5561",
"9. c #8D5D63",
"0. c #9D5B6E",
"q. c #946166",
"w. c #9E646D",
"e. c #866379",
"r. c #986577",
"t. c #A36675",
"y. c #B8687F",
"u. c #927E97",
"i. c #BC6B81",
"p. c #AE7085",
"a. c #B57583",
"s. c #B1708D",
"d. c #B17D8E",
"f. c #BA7A85",
"g. c #A47D93",
"h. c #C07A87",
"j. c #C47B8D",
"k. c #C77F91",
"l. c #CC7E90",
"z. c #AD8A9C",
"x. c #B08494",
"c. c #9C95B0",
"v. c #A38CA7",
"b. c #C9848D",
"n. c #CB8698",
"m. c #D48795",
"M. c #DE909D",
"N. c #CA99A7",
"B. c #C39FAF",
"V. c #DE97A5",
"C. c #D793A2",
"Z. c #EC9AA6",
"A. c #EF9CA8",
"S. c #E595A2",
"D. c #C9A8AE",
"F. c #D6BFC4",
"G. c #DFBECF",
"H. c #D2DBE5",
"J. c #E7F3FE",
"K. c #FDF2F3",
"L. c #FEF8F9",
/* pixels */
"j j j j j j j 7 j j j j j j j j 7 j j j j j j j 7 j j j j j j 7 ",
"7 7 7 7 7 7 7 7 7 j 6 7 7 7 j 7 7 7 7 7 7 j 7 7 7 7 7 j 7 7 7 7 ",
"7 j 7 j 7 j 7 7 j 7 7 j 7 7 7 j 7 j 7 7 j 7 7 7 7 j 7 7 7 j 7 7 ",
"m m m m m m m m m m m m m m m m m m m m m m m m m m m m m m m m ",
"j m m m m m m m z m m z m m z z z m m m m m m m m m m m m m m z ",
"5 7 m m j j j m z z z z 6 : # # # = 6 j z j z z z j j m z j 6 5 ",
"m m m m m m m m m m m 5 * p ` _ [ f 2 7 m m m m m m m m m m m m ",
"m m m m m m m m m z 5 a ) } X.| } _ u 4 m m m m m m m m m m m m ",
"6 7 j m j j m j m 7 X f } X.| } ' J i * 5 j z j m z 7 z z j 7 6 ",
"m j j m m m m j m > v ] } | ' _ J s s $ 4 m m m m m m m m z m 7 ",
"m m m m m m m m m & !  .} ' { *.r.*.-...5 m m m m m m m m m m m ",
"j j m m m m m m m & <.1. .` O.n.S.a.u.;.5 7 j m m z m m m m m 7 ",
"6 7 m j m 7 m j z o <.4.~ ..W p.k.$.&.e.B > 7 j 7 m j z 7 m 7 6 ",
"m m m m m m m m m 4 b 3.2.g.x.j.l.d.z.*.n 6 m m m m m m m m m m ",
"m m m m m m m m m j ; <.b 8.M.Z.A.S.t.k 5 6 m m m m m m m m m m ",
"5 7 m 7 m 7 m 7 j 6 . - ; , 5.i.i.0.k ; 4 5 6 m 7 m m 7 m 7 6 5 ",
"m m m m m m m m m m 6 : B Q =.M.V.N.D.@.6 m m m m m m m m m m m ",
"m m m m m m m m m m j h 7.y c.K.K.L.F.f.N 6 m m m m m m m m m m ",
"6 7 j m m m j m j 7 5 h 9.@ ,.H.J.H.:.9.N 4 7 m m j m j m 7 j 6 ",
"7 m m j m j m m j j : +.7.@ S v.G.B.M @.6.1 7 m m j m j j m m j ",
"m m m m m m m m m m < f.w.q D %.n.s.I @.m.n 7 m m m m m m m m m ",
"j m m m m m m m m j > a.q.q D G ( ( w @.b.l 5 m m m m m m m j m ",
"6 7 j j m j j j j 6 5 g ; d T A Z U K & 5 1 6 m m 7 7 m m m 6 5 ",
"m m m m m m m m m m m m : K T 8 O P L : j m m m m m m m m m m m ",
"m m m m m m m m m m m m 4 y R O   E I < m m m m m m m m m m m m ",
"5 7 7 m m j 7 m j j m 5 e / H , ; S ^ r 5 j j j 7 m m m 7 m 5 5 ",
"m m m m m m m m m m m 5 + 0 + 5 7 . 0 + 4 m m m m m m m m m m m ",
"m m m m m m m m m m m m j 7 j j m j 7 7 m m m m m m m m m m m m ",
"7 j m m m j m m j m m m 7 m m m m m m j j m j m j m j m m m 7 7 ",
"7 7 7 m m m m 7 m j 7 m m m 7 m m j m j m j m j j m j m j j 7 7 ",
"m m m m m m m m m m m m m m m m m m m m m m m m m m m m m m m m ",
"m m 7 m m m j m m m m 7 m m 7 m m m j m m m j m m m j m m j m m "
};
