/* XPM */
static char *f74c263bca0a41d28df4c0f604af7d13uMuKeqGHcVu6KdEE[] = {
/* columns rows colors chars-per-pixel */
"38 38 176 2 ",
"   c black",
".  c #070503",
"X  c #020104",
"o  c #050304",
"O  c #070707",
"+  c #080604",
"@  c #0B0906",
"#  c #020709",
"$  c #04040D",
"%  c #020809",
"&  c #090C0B",
"*  c #19060F",
"=  c #120E0A",
"-  c #140F0B",
";  c #15100C",
":  c #090710",
">  c #0D0714",
",  c #0B0B16",
"<  c #0F0917",
"1  c #0C0D17",
"2  c #09081B",
"3  c #110A13",
"4  c #100817",
"5  c #150D19",
"6  c #0B1110",
"7  c #0C1512",
"8  c #1B1013",
"9  c #220D14",
"0  c #201116",
"q  c #231617",
"w  c #261714",
"e  c #281B14",
"r  c #291C15",
"t  c #221618",
"y  c #27191C",
"u  c #291B1B",
"i  c #2B1F19",
"p  c #291B1D",
"a  c #2B1D1D",
"s  c #2E211A",
"d  c #322219",
"f  c #33241A",
"g  c #35271B",
"h  c #34271D",
"j  c #36291E",
"k  c #392A1E",
"l  c #190C26",
"z  c #14123E",
"x  c #370E20",
"c  c #381F27",
"v  c #09242C",
"b  c #1B2023",
"n  c #0A2A33",
"m  c #0A2B34",
"M  c #0C3436",
"N  c #0C343B",
"B  c #0C3E3F",
"V  c #202429",
"C  c #382A20",
"Z  c #3B2C20",
"A  c #3F2F23",
"S  c #3D242B",
"D  c #3E272D",
"F  c #24343F",
"G  c #433326",
"H  c #442D30",
"J  c #463B3E",
"K  c #18164A",
"L  c #19164C",
"P  c #1F1A4F",
"I  c #1B1953",
"U  c #1D1A59",
"Y  c #211C5A",
"T  c #321853",
"R  c #112742",
"E  c #2C2246",
"W  c #2B2548",
"Q  c #31274B",
"!  c #362855",
"~  c #2F3559",
"^  c #313450",
"/  c #333858",
"(  c #232160",
")  c #242262",
"_  c #3A2A62",
"`  c #3B2D64",
"'  c #34376D",
"]  c #3A3E74",
"[  c #393C7C",
"{  c #502D4A",
"}  c #523D58",
"|  c #7D214A",
" . c #422162",
".. c #41216B",
"X. c #513669",
"o. c #4A2B74",
"O. c #4F2877",
"+. c #502878",
"@. c #0D4042",
"#. c #0F484A",
"$. c #0F4A4C",
"%. c #104E4E",
"&. c #10514A",
"*. c #11554C",
"=. c #105250",
"-. c #125B54",
";. c #125D56",
":. c #25444E",
">. c #264650",
",. c #2A4551",
"<. c #136158",
"1. c #14665B",
"2. c #46494D",
"3. c #57415F",
"4. c #942657",
"5. c #99285A",
"6. c #9B3265",
"7. c #B22E69",
"8. c #914E64",
"9. c #895060",
"0. c #A85A74",
"q. c #A75A79",
"w. c #A05D7A",
"e. c #8B6676",
"r. c #A96377",
"t. c #A96577",
"y. c #A96F77",
"u. c #A4667B",
"i. c #AE687A",
"p. c #AE6B7D",
"a. c #5A2E88",
"s. c #543085",
"d. c #3F4383",
"f. c #B26A81",
"g. c #B06E81",
"h. c #B26F86",
"j. c #AF7785",
"k. c #C37288",
"l. c #C4758A",
"z. c #C37E89",
"x. c #CB7A8F",
"c. c #89A3B7",
"v. c #C9828D",
"b. c #C9848D",
"n. c #CF8791",
"m. c #CC8898",
"M. c #D18093",
"N. c #D18B9A",
"B. c #D48C9F",
"V. c #DC8B9A",
"C. c #D88C9A",
"Z. c #CB9299",
"A. c #D9909D",
"S. c #DF909E",
"D. c #E3919F",
"F. c #C791A6",
"G. c #D490A1",
"H. c #E695A2",
"J. c #EA97A4",
"K. c #EB99A5",
"L. c #F29FAA",
"P. c #E7A2AE",
"I. c #EFA9B3",
"U. c #EAA9B6",
"Y. c #B6B9C3",
"T. c #BCB9C3",
"R. c #B3C4DB",
"E. c #BCC6DE",
"W. c #D0C2C6",
"Q. c #D1C5D2",
"!. c #D9D9E3",
"~. c #CBDFF4",
"^. c #F6E9EC",
"/. c #FCEEF0",
"(. c #FDFBFC",
"). c white",
/* pixels */
"Z Z Z Z Z Z Z Z Z Z Z Z Z Z Z Z Z Z Z Z Z Z Z Z Z Z Z Z Z Z Z Z Z Z Z Z Z k ",
"A A A A A A A A A A A A A A A A A A A A A A A A A A A A A A A A A A A A A A ",
"d d d d d d d d d d d d d d d d d d d d d d d d d d d d d d d d d d d d d d ",
"G G G G G G G G G G G G G G G G G G G G G G G G G G G G G G G G G G G G G G ",
"G G G G G G G G G G G G G G G G G G G G G G G G G G G G G G G G G G G G G G ",
"A A G G G G G G G G G G G G G G G G G G G G G G G G G G G G G G G G G G A A ",
"d f Z Z Z Z Z Z Z Z Z Z Z Z Z Z = + + + + f Z Z Z Z Z Z Z Z Z Z Z Z Z k d d ",
"G G G G G G G G G G G G G G ; @ M B &.*.*.7 Z G G G G G G G G G G G G G G G ",
"G G G G G G G G G G G G G ; M B -.<.=.%.%.@.6 Z G G G G G G G G G G G G G G ",
"A A G G G G G G G G G G - M #.;.1.1.<.%.$.N % j G G G G G G G G G G G G A A ",
"d f Z Z Z Z Z Z Z Z Z Z + B $.<.1.=.%.$.N m v & f Z Z Z Z Z Z Z Z Z Z k d d ",
"G G G G G G G G G G G ; | :.$.<.=.$.$.N m n n # C G G G G G G G G G G G G G ",
"G G G G G G G G G G G @ 4.,.$.%.$.$.e.u.u.F c.b C G G G G G G G G G G G G G ",
"A A G G G G G G G G G @ 4.6.>.$.$.e.S.J.J.g.E.V h A A G G G G G G G G G A A ",
"d f Z Z Z Z Z Z Z Z k + 4.7.6.>.R W N.L.3.Q ~ j.u r f Z Z Z Z Z Z Z Z k d d ",
"G G G G G G G G G G G @ 4.7.7.E Y.} f.x.{ T./ m.p f G G G G G G G G G G G G ",
"G G G G G G G G G G G Z 9 5.7.q.P.A.H.J.C.I.h.D s k G G G G G G G G G G G G ",
"A A G G G G G G G G G A @ 4.x 0 i.K.L.L.L.M.S r g k A G G G G G G G G G A A ",
"d f Z Z Z Z Z Z Z Z k d + * w . 8 8.0.0.0.c o r d d f Z Z Z Z Z Z Z Z k d d ",
"G G G G G G G G G G G G C s = y.! w.V.D.k.W.Z.a Z G G G G G G G G G G G G G ",
"G G G G G G G G G G G G G = y.H P Q././.^.(.G.v.a Z G G G G G G G G G G G G ",
"A A G G G G G G G G G A A + b.p K !.).).).).J n.p h A G G G G G G G G G A A ",
"d f Z Z Z Z Z Z Z Z k d d + b.p $ ^ R.~.~.2.O b.p e f Z Z Z Z Z Z Z Z k d d ",
"G G G G G G G G G G G G ; 9.l.t z I F.U.U.p.8 t.r.q Z G G G G G G G G G G G ",
"G G G G G G G G G G G G @ z.J.y K U ` B.M.X.: z.J.y C G G G G G G G G G G G ",
"A A G G G G G G G G G A @ b.L.p K U U ` _ Y $ b.L.p h G G G G G G G G G A A ",
"d f Z Z Z Z Z Z Z Z k d r p p O ' ( U U U [ , t p e d Z Z Z Z Z Z Z Z k d d ",
"G G G G G G G G G G G G G Z C + ] ) 2 $ L d.1 s C G G G G G G G G G G G G G ",
"G G G G G G G G G G G G G G G @ ] ) $   K d.1 C G G G G G G G G G G G G G G ",
"A A G G G G G G G G G G G G G @ o...:   T s.< j G G G G G G G G G G G G A A ",
"d f Z Z Z Z Z Z Z Z Z Z Z Z =  .a.l i f 3 O.+.5 f Z Z Z Z Z Z Z Z Z Z k d d ",
"G G G G G G G G G G G G G G @ > 4 X C G @ > 4 X C G G G G G G G G G G G G G ",
"G G G G G G G G G G G G G G Z C C C G G Z C C C G G G G G G G G G G G G G G ",
"A A G G G G G G G G G G G G G G G G G G G G G G G G G G G G G G G G G G A A ",
"d f Z Z Z Z Z Z Z Z Z Z Z Z Z Z Z Z Z Z Z Z Z Z Z Z Z Z Z Z Z Z Z Z Z k d d ",
"G G G G G G G G G G G G G G G G G G G G G G G G G G G G G G G G G G G G G G ",
"G G G G G G G G G G G G G G G G G G G G G G G G G G G G G G G G G G G G G G ",
"A A A A A A A A A A A A A A A A A A A A A A A A A A A A A A A A A A A A A Z "
};
