/* XPM */
static char *c6a00cc5a2ef4a86aada2eac8f1bca21Jt6WYGG8BGpxehHZ[] = {
/* columns rows colors chars-per-pixel */
"38 38 7 1 ",
"  c #322219",
". c #33241A",
"X c #37281C",
"o c #392A1E",
"O c #3B2C20",
"+ c #3F2F23",
"@ c #433326",
/* pixels */
"OOOOOOOOOOOOOOOOOOOOOOOOOOOOOOOOOOOOOo",
"++++++++++++++++++++++++++++++++++++++",
"                                      ",
"@@@@@@@@@@@@@@@@@@@@@@@@@@@@@@@@@@@@@@",
"@@@@@@@@@@@@@@@@@@@@@@@@@@@@@@@@@@@@@@",
"++@@@@@@@@@@@@@@@@@@@@@@@@@@@@@@@@@@++",
" .OOOOOOOOOOOOOOOOOOOOOOOOOOOOOOOOOo  ",
"@@@@@@@@@@@@@@@@@@@@@@@@@@@@@@@@@@@@@@",
"@@@@@@@@@@@@@@@@@@@@@@@@@@@@@@@@@@@@@@",
"++@@@@@@@@@@@@@@@@@@@@@@@@@@@@@@@@@@++",
" .OOOOOOOOOOooooooooooooOOOOOOOOOOOo  ",
"@@@@@@@@@@@@@ooooooooo@o@@@@@@@@@@@@@@",
"@@@@@@@@@@@@@ooooooooo@o@@@@@@@@@@@@@@",
"++@@@@@@@@@++XXXXXXXXo+o+++@@@@@@@@@++",
" .OOOOOOOOo               .OOOOOOOOo  ",
"@@@@@@@@@@@@@@o@oooooooooo@@@@@@@@@@@@",
"@@@@@@@@@@@@@@o@oooooooooo@@@@@@@@@@@@",
"++@@@@@@@@@+++o+XXXXXXXXXo+@@@@@@@@@++",
" .OOOOOOOOo               .OOOOOOOOo  ",
"@@@@@@@@@@@@@oooooooo@o@@@@@@@@@@@@@@@",
"@@@@@@@@@@@@@oooooooo@o@@@@@@@@@@@@@@@",
"++@@@@@@@@@++XXXXXXXo+o++++@@@@@@@@@++",
" .OOOOOOOOo               .OOOOOOOOo  ",
"@@@@@@@@@@@@@@o@oooooooo@o@@@@@@@@@@@@",
"@@@@@@@@@@@@@@o@oooooooo@o@@@@@@@@@@@@",
"++@@@@@@@@@+++o+XXXXXXXo+o+@@@@@@@@@++",
" .OOOOOOOOo               .OOOOOOOOo  ",
"@@@@@@@@@@@@@@@@@@@@@@@@@@@@@@@@@@@@@@",
"@@@@@@@@@@@@@@@@@@@@@@@@@@@@@@@@@@@@@@",
"++@@@@@@@@@@@@@@@@@@@@@@@@@@@@@@@@@@++",
" .OOOOOOOOOOOOOOOOOOOOOOOOOOOOOOOOOo  ",
"@@@@@@@@@@@@@@@@@@@@@@@@@@@@@@@@@@@@@@",
"@@@@@@@@@@@@@@@@@@@@@@@@@@@@@@@@@@@@@@",
"++@@@@@@@@@@@@@@@@@@@@@@@@@@@@@@@@@@++",
" .OOOOOOOOOOOOOOOOOOOOOOOOOOOOOOOOOo  ",
"@@@@@@@@@@@@@@@@@@@@@@@@@@@@@@@@@@@@@@",
"@@@@@@@@@@@@@@@@@@@@@@@@@@@@@@@@@@@@@@",
"+++++++++++++++++++++++++++++++++++++O"
};
