/* XPM */
static char *tiles[] = {
/* columns rows colors chars-per-pixel */
"32 32 56 1 ",
"  c #33241A",
". c #34241A",
"X c #34251A",
"o c #34241B",
"O c #34251B",
"+ c #35251B",
"@ c #35261B",
"# c #36261B",
"$ c #36271B",
"% c #35251C",
"& c #36261C",
"* c #36271C",
"= c #37271C",
"- c #37271D",
"; c #37281C",
": c #37281D",
"> c #38281D",
", c #38291D",
"< c #392A1D",
"1 c #38281E",
"2 c #39281E",
"3 c #38291E",
"4 c #39291E",
"5 c #382A1E",
"6 c #392A1E",
"7 c #392A1F",
"8 c #3A2A1F",
"9 c #3A2B1F",
"0 c #3B2B1F",
"q c #3B2C1F",
"w c #3B2B20",
"e c #3B2C20",
"r c #3C2C20",
"t c #3C2D20",
"y c #3C2C21",
"u c #3C2D21",
"i c #3D2D21",
"p c #3D2E21",
"a c #3D2D22",
"s c #3D2E22",
"d c #3E2E22",
"f c #3E2F22",
"g c #3F2F22",
"h c #3E2F23",
"j c #3F2F23",
"k c #3F3023",
"l c #403024",
"z c #403124",
"x c #413124",
"c c #413125",
"v c #423225",
"b c #423226",
"n c #433226",
"m c #433326",
"M c #443326",
"N c #443426",
/* pixels */
"uuuuuuuuuuuuuuuuuuuuuuuuuuuuuuue",
"88888888888888888888888888888888",
"88888888888888888888888888888888",
"NNNNNNNNNNNNNNNNNNNNNNNNNNNNNNNN",
"jznnnnnnnnnnnnnnnnnnnnnnnnnnnnlj",
"&4pppppppppppppppppppppppppppu>%",
"nnnnnnnnnnnnnnnnnnnnnnnnnnnnnnnn",
"vvmmmmmmmmmmmmmmmmmmmmmmmmmmmmbv",
"-9hhhhhhhhppppppppppfhhhhhhhhd4-",
"djxxxxxxxxk6555555urgxxxxxxxxzgd",
"mmmmmmmmmmv6666665dpzmmmmmmmmmmm",
"rsccccccxaw$##$$#*77wysccccccxar",
"1wffffffs71-&=O++++++@0ffffffs71",
"mmmmmmmmmmNxpf6666666qmmmmmmmmmm",
"lxmmmmmmmxlfrr;,,,,,,9zmmmmmmmxl",
"&4spppppu-%+oo   ...o+3ppppppu:%",
"vvbbbbbbbvx655553rpdvvvbbbbbbbvv",
"vnmmmmmmmnc6<<<<<udgbvbmmmmmmmnv",
"1wkkkkkkg8>XXXXXX=-:22wkkkkkkg81",
"ydllllllkiyw47******0>sllllllkay",
"mmmmmmmmmmMxpf666666ztmmmmmmmmmm",
"ajvvvvvvvfar97$***$;r6hvvvvvvvha",
"-7ssssssi1----=====---7ssssssi2-",
"mmmmmmmmmmmmmmmmmmmmmmmmmmmmmmmm",
"xvmmmmmmmmmmmmmmmmmmmmmmmmmmmmvx",
"&4sssssssssssssssssssssssssssi>&",
"zxvvvvvvvvvvvvvvvvvvvvvvvvvvvvxz",
"nnmmmmmmmmmmmmmmmmmmmmmmmmmmmmmn",
"7ylllllllllllllllllllllllllllkw7",
"wukkkkkkkkkkkkkkkkkkkkkkkkkkkgrw",
"mmmmmmmmmmmmmmmmmmmmmmmmmmmmmmmm",
"llllllllllllllllllllllllllllllls"
};
