/* XPM */
static char *wall[] = {
/* columns rows colors chars-per-pixel */
"32 32 67 1 ",
"  c #171513",
". c #1A1514",
"X c #1D1A16",
"o c #1E1B18",
"O c #201715",
"+ c #221A16",
"@ c #231E19",
"# c #291D1A",
"$ c #26211B",
"% c #2B221C",
"& c #34241D",
"* c #32281D",
"= c #3A2A1F",
"- c #272421",
"; c #2E2722",
": c #2F2B28",
"> c #342621",
", c #362B23",
"< c #3D2D22",
"1 c #372E28",
"2 c #3D2D28",
"3 c #3E3125",
"4 c #36302A",
"5 c #3D322A",
"6 c #412E23",
"7 c #423225",
"8 c #4C3524",
"9 c #4A3825",
"0 c #44352A",
"q c #48372B",
"w c #45382D",
"e c #4B3A2C",
"r c #513724",
"t c #523A26",
"y c #5C3F27",
"u c #553D2A",
"i c #583F29",
"p c #413731",
"a c #463830",
"s c #4C3E32",
"d c #5F4027",
"f c #55412D",
"g c #5C422A",
"h c #4E4035",
"j c #514237",
"k c #524439",
"l c #5E4C39",
"z c #63452B",
"x c #674A2F",
"c c #6D4A2C",
"v c #714C2C",
"b c #77502F",
"n c #624932",
"m c #6E4E31",
"M c #6E5136",
"N c #555147",
"B c #535753",
"V c #695642",
"C c #6C5944",
"Z c #655A4B",
"A c #695C4B",
"S c #605F57",
"D c #4C656F",
"F c #556467",
"G c #516A73",
"H c #5B6F75",
"J c #636761",
/* pixels */
"<<<<<<<<<<<<<<6<<6<<6<<6<<6<<6<=",
"================&=====&=====&<&=",
"=<=<====<<===<=,=<=<,=<<=<====<=",
"7777s,&&&&&&&&&&&&&&&&&&&&&>6086",
"667sezddyyydzyddyryyyytuttttq03<",
"&=6s0bvvvvvvvvvvxzcvccccvcvcgp,&",
"777kqbvvvCCmcvvcczxvvvvvvvvcgw07",
"777k6zzznFGlzzzzyyzzzzzzzzgye533",
"&=0eyzzznFGlzzgzzzzzgzzgzzg8<4<&",
"66sqvvccmZAmcvvcccccbcvcccvg,433",
"77hqvvvvvvccvccccccvcccMMmvg0377",
",<s0zzzzzziyiigiggggzxxZHScgw3<<",
"==s2,88ttt8tt98ttt9fgggNDBgge5<*",
"77eq6bccxmccccccxccccccMJAccgw07",
"677jqbvcvvccvvvcccccccvvMcccgw33",
"&=<s0vccxccccxcccccccczzzzzzfw=&",
"777h<67=666<6<<<=666=6<66===6507",
"777j%%%%%%%$%%%#%%%%%%%%%%%$%537",
"*=3e1X##X $$++++++++X$$X.X$$-1<*",
"=773h*76$ *=*=&&&&&&==5$.*7357<<",
"7777k6iu&+%&*%&&&%*&&&=$#7ff0077",
"<677k6zx=%&<r9rrrrrrrrr86rzgw53<",
"==77j6cc=+&=999989998999<rcgw7=&",
"7777f6zv=.+%****&*****%*&8cze777",
"7777j6cc3$$$%%$%%$%$%$$*&8czw573",
"&*76eeccf,=3=<<<<<<<<<<77tczw3=&",
"77777suff3739937397737777fgfq777",
"77777777977933779379777777777777",
"=,77777777<<<777<3777<76677777==",
"=<777<7<<<7777<<337<7763<6373<==",
"77777777797777977777777777777777",
"<6<<76<<<7<7<<<<77<<6<7<<77=7<67"
};
