/* XPM */
static char *_da7b6ae7cf34aa2f583b43d16d08582jIWWbdiRZA6qbWTQ[] = {
/* columns rows colors chars-per-pixel */
"38 38 79 1 ",
"  c #151412",
". c #1A1614",
"X c #1B1815",
"o c #231716",
"O c #211D17",
"+ c #291D16",
"@ c #231D1A",
"# c #2B1B19",
"$ c #301F1C",
"% c #27231F",
"& c #2D231C",
"* c #32231A",
"= c #32291E",
"- c #3A2A1E",
"; c #2C2926",
": c #332520",
"> c #3A2620",
", c #3D2D22",
"< c #362E2A",
"1 c #392A29",
"2 c #3D3122",
"3 c #353029",
"4 c #3D342C",
"5 c #353230",
"6 c #40291F",
"7 c #412E23",
"8 c #433325",
"9 c #4A3625",
"0 c #4C3925",
"q c #42362C",
"w c #47382B",
"e c #4B3C2D",
"r c #563A25",
"t c #5A3C26",
"y c #543E2A",
"u c #453C33",
"i c #4B3B31",
"p c #503E30",
"a c #5D422B",
"s c #524232",
"d c #53463C",
"f c #584A3F",
"g c #64462A",
"h c #66472C",
"j c #68472B",
"k c #67482B",
"l c #67482C",
"z c #6C4A2B",
"x c #6B4A2C",
"c c #6E4B2C",
"v c #6F4B2C",
"b c #6E4C2E",
"n c #714D2D",
"m c #744F2F",
"M c #79512F",
"N c #6D4F33",
"B c #6A4E35",
"V c #684F38",
"C c #6C5137",
"Z c #6C533A",
"A c #69533D",
"S c #68543E",
"D c #6C543D",
"F c #7D5430",
"G c #4E4940",
"H c #584B40",
"J c #594C41",
"K c #475254",
"L c #41545B",
"P c #635D52",
"I c #695F50",
"U c #425862",
"Y c #5D7176",
"T c #647273",
"R c #805531",
"E c #5B7F8E",
"W c #607F8A",
"Q c #5C808E",
"! c #60818D",
/* pixels */
",,,,,,,,,,,,,,,,,,,,,,,,,,,,,,,,,,,,,-",
",,,,,,,,,,,,,,,,,,,,,,,,,,,,,,,,,,,,,,",
"**************************************",
"88888888888888888888888888888888888888",
"88888J###########################1q888",
",,88f,Fvzzzzvvvvvvvzakzzzzagagagaeq4,,",
"**,,d>Rnvvvvvvvvvvvxakvvvvvvvvvvvke4**",
"8888J,Rnvvvvvvvvvvvxakvvvvvvvvvvvke488",
"8888J,RnvvD!QSvvvvvxakvvvvvvvvvvvke488",
",,88H*yyyysLLsyyyyyyyyyyyyyyyyy8>:<4,,",
"**,d,MvxxxAQESxxxxxxxxxxxxxxxxxzg8<4**",
"888J>RnvvvbCCbvvvvvvvvvvvvvvvvvvk-;488",
"888J>Rnvvvvvvvvvvvvvvvvvvvvvvvvvkw4888",
",,8H>RnvvvvxalahahahakakvvvCTWIvke48,,",
"**,d$,,,8888888888888888yyysKUGyyq4-**",
"888J#,mjkkkkkkkkkkkkkkkkzxxVYEPxzgeq88",
"888wd,RnvvvvvvvvvvvvvvvvvvvbZSNvvke488",
",,88H,Rnvvvvvvvvvvvvvvvvvvvvvvvvvke4,,",
"**,,d>Rnvvvvvvvvvvvvvvvvvxgkgkgkgae4**",
"8888J*77,,,,,,,,,,,,,,,,,,,,,,,,,>4488",
"8888J@=::::::::::::::::::::::::::*<488",
",,88HXXXXXXXXXXXXXXXXXXXXXXXXXXXXX;4,,",
"**,,8uX==&. ;&++++++++++++<%  %==;<,**",
"88888J&908X 58-8--------8-d; o,084q888",
"88888J:aytoo##############:#o#0aywq888",
",,888f>kzaO=-,rtttttttttttttr6rxge48,,",
"**,,,d:kvaO#&>900000000000009-rvke4-**",
"88888J>kvgoo#=,2222222222222,*rvkeq888",
"88888J>kvgo..XOOOOOOOOOOOOOOO#rvkeq888",
",,888f>kvg3=================41rvke48,,",
"**,,,wixvVq,,,,,,,,,,,,,,,,,8wavBp<-**",
"888888iyysw888888888888888888wyyye8888",
"88888888888888888888888888888888888888",
",,8888888888888888888888888888888888,,",
"**,,,,,,,,,,,,,,,,,,,,,,,,,,,,,,,,,-**",
"88888888888888888888888888888888888888",
"88888888888888888888888888888888888888",
",,,,,,,,,,,,,,,,,,,7,,,,,,,,,,,,,,,,,,"
};
