/* XPM */
static char *_8cccb18600c48b3ad5da986dbb155699SYLmTpHkswrezYv[] = {
/* columns rows colors chars-per-pixel */
"32 32 26 1 ",
"  c #141412",
". c #151615",
"X c #181A1B",
"o c #191C1E",
"O c #1E2225",
"+ c #2B3037",
"@ c #2F363F",
"# c #303944",
"$ c #343C45",
"% c #384250",
"& c #3A4553",
"* c #394554",
"= c #414E5E",
"- c #414F60",
"; c #445467",
": c #4A5B70",
"> c #4B5D73",
", c #4E5E72",
"< c #4B5D74",
"1 c #56687E",
"2 c #556984",
"3 c #5C728D",
"4 c #607897",
"5 c #6781A3",
"6 c #728FB3",
"7 c #7998BF",
/* pixels */
"           :33333333:           ",
"         33677777777633         ",
"       33775>======>57733       ",
"      3775>&@++++++@&>5773      ",
"XXXXX:77>&@+++OOOO+++@&>77:XXXX ",
"oooo<45>@++Ooo....ooO++@>54<ooo ",
"ooo<44;@+Oo.        .oO+@;44<oo ",
"oo#44;@+O.            .O+@;44#o ",
"..244@+o.              .o+@442. ",
"::44&+O                  O+&44::",
"4444+O.                  .O+4444",
";;;;+.                    .+;;;;",
"****O                      O****",
"@@@@.                      .@@@@",
"oooo                        oooo",
"++XX                        XX++",
"$$oo                        oo$$",
"%%oo                        oo%%",
",,oo                        oo,,",
"11oo                        oo11",
"11oo                        oo11",
"11oo                        oo11",
"11oo                        oo11",
"11oo                        oo11",
"11oo                        oo11",
"--oo                        oo--",
",,oo                        oo,,",
"--oo                        oo--",
",,oo                        oo,,",
"--oo                        oo--",
"**oo                        oo**",
"**oo                        oo**"
};
