/* XPM */
static char *enemy[] = {
/* columns rows colors chars-per-pixel */
"32 32 204 2 ",
"   c #001E36",
".  c #001E37",
"X  c #001F37",
"o  c #031F37",
"O  c #081F37",
"+  c #091F38",
"@  c #0A2038",
"#  c #0B2038",
"$  c #0C2038",
"%  c #142536",
"&  c #102038",
"*  c #132038",
"=  c #142038",
"-  c #152038",
";  c #162038",
":  c #172038",
">  c #182038",
",  c #192038",
"<  c #1B2238",
"1  c #1C2338",
"2  c #252837",
"3  c #262837",
"4  c #2E2D36",
"5  c #212139",
"6  c #2B2139",
"7  c #2E2239",
"8  c #312F35",
"9  c #30223A",
"0  c #31223A",
"q  c #3B233B",
"w  c #3D233B",
"e  c #343135",
"r  c #353235",
"t  c #363234",
"y  c #373234",
"u  c #373334",
"i  c #3B3533",
"p  c #3B3633",
"a  c #3D3633",
"s  c #3D3733",
"d  c #3E3733",
"f  c #3E3136",
"g  c #383434",
"h  c #3A3534",
"j  c #3F3933",
"k  c #45243C",
"l  c #403932",
"z  c #403A32",
"x  c #413A32",
"c  c #433B32",
"v  c #443B31",
"b  c #433C32",
"n  c #443C31",
"m  c #453D31",
"M  c #493F30",
"N  c #4A3F30",
"B  c #735F1C",
"V  c #725E1D",
"C  c #735E1D",
"Z  c #715D1E",
"A  c #705C1F",
"S  c #715C1F",
"D  c #725D1E",
"F  c #725E1E",
"G  c #745F1C",
"H  c #7C6713",
"J  c #7D6713",
"K  c #7A6515",
"L  c #7B6614",
"P  c #7A6615",
"I  c #7B6615",
"U  c #796516",
"Y  c #796517",
"T  c #7C6714",
"R  c #7D6812",
"E  c #7D6813",
"W  c #7E6813",
"Q  c #7F6815",
"!  c #746119",
"~  c #766219",
"^  c #766319",
"/  c #75601B",
"(  c #796418",
")  c #7A661D",
"_  c #7C671C",
"`  c #7F6A19",
"'  c #7D691A",
"]  c #7C681B",
"[  c #7E6A1A",
"{  c #47402F",
"}  c #49412E",
"|  c #4C412F",
" . c #51462E",
".. c #50462F",
"X. c #54472F",
"o. c #5E502B",
"O. c #494031",
"+. c #4A4030",
"@. c #635227",
"#. c #645326",
"$. c #665425",
"%. c #645526",
"&. c #6A5723",
"*. c #695823",
"=. c #6A5923",
"-. c #6C5921",
";. c #6D5A21",
":. c #6F5B20",
">. c #6E5C20",
",. c #605228",
"<. c #615228",
"1. c #735F22",
"2. c #756120",
"3. c #746021",
"4. c #756121",
"5. c #776220",
"6. c #746022",
"7. c #662A41",
"8. c #702C43",
"9. c #762C43",
"0. c #742D44",
"q. c #806716",
"w. c #806717",
"e. c #816C17",
"r. c #82671A",
"t. c #83671A",
"y. c #84661D",
"u. c #806B18",
"i. c #866B1E",
"p. c #A35E3A",
"a. c #A45D3B",
"s. c #A75C3E",
"d. c #856520",
"f. c #876620",
"g. c #886A20",
"h. c #94622D",
"j. c #97662F",
"k. c #996132",
"l. c #882F47",
"z. c #8B3047",
"x. c #8D3048",
"c. c #8F334A",
"v. c #93334B",
"b. c #93344B",
"n. c #9B354D",
"m. c #9F344C",
"M. c #9C364D",
"N. c #9D364E",
"B. c #A1354D",
"V. c #A1374F",
"C. c #A2374F",
"Z. c #A63A4F",
"A. c #A53850",
"S. c #A83950",
"D. c #A93951",
"F. c #AF3B53",
"G. c #B33B54",
"H. c #B73C55",
"J. c #BE3F57",
"K. c #BF3F57",
"L. c #A84C45",
"P. c #AA5B40",
"I. c #AF5943",
"U. c #AC5E41",
"Y. c #B15845",
"T. c #B25845",
"R. c #B55A47",
"E. c #B45448",
"W. c #B65649",
"Q. c #B75649",
"!. c #B8554A",
"~. c #BA554B",
"^. c #BD504C",
"/. c #BD534D",
"(. c #BE534E",
"). c #BB544C",
"_. c #BC564D",
"`. c #BF544F",
"'. c #B94652",
"]. c #C0524F",
"[. c #C54F53",
"{. c #C74E54",
"}. c #C94D56",
"|. c #CA4C56",
" X c #CA4D56",
".X c #CB4C57",
"XX c #C54059",
"oX c #C74159",
"OX c #CF435C",
"+X c #CF4A5A",
"@X c #D2475C",
"#X c #D5475D",
"$X c #D5455E",
"%X c #D6455E",
"&X c #D7455E",
"*X c #D8455F",
"=X c #D8465F",
"-X c #D9465F",
";X c #D0495A",
":X c #D1495B",
">X c #C35051",
",X c #C05250",
"<X c #C15350",
"1X c #C45052",
/* pixels */
"R R R e.R e.R R R R e.R e.R e.R R R R R R R R R R e.R R R R R R ",
"R R R R R R R R R R R R R R R R R R R R R R R e.R R R e.R R e.e.",
"R R R R R R R R R e.R R R R R R R R R R H H H H H R R R R R R e.",
"R R R R R R R e.R R R R R R R R e.R R R <.c m c o.R R R R R e.R ",
"e.e.R R R R R R R R e.R R R R R R R R ,.8 $ # & { R e.R R R R R ",
"R R R R R R R R R e.R R R R R R R R R ..X m.B.l.^.R R e.R R e.R ",
"R R R R R R R R R R e.R R R R R e.R %.u X z.x.9.L.R R R R R R e.",
"R R R R R R R R e.e.R e.R R R e.R R O.: > X X o } R R R R R R e.",
"R R R R R R R e.R R e.R R e.R R H *.g : : : : : p =.E R e.R R R ",
"R R R R R R R R R e.R e.R e.R R H l : : : : : : : b H R e.R e.R ",
"R R R R R R R R R e.e.R R R R H >.g : : : : : : : n H e.R R R R ",
"R R R R R e.R R R R R R R R R P p : : : : : : : : n H R R e.R R ",
"R R R R R R R R R R R R R R R [ h : : : : : - = : m H R R R R R ",
"R R R R R f.g.R R e.R R R R R P h : : : : = w k ; z ^ e.R R R R ",
"R R e.R R R.s.R e.R R e.R e.E ) h : : : : X b.D.+ < m L R R R R ",
"e.R R R R f.y.R R R R Q t.e.Y x 1 : : 0 q 9 N.F.O : s ` e.R e.R ",
"R e.R e.e.R R R R e.R h.`.i.( f 7 7 6 A.oXXXOXF.5 : j I R e.R R ",
"R R R R R R R R R R R k.}.y.d.'.K.K.K.OX&X&X&XOXC., s P R R R R ",
"e.R R R R R R R R R j.{.@X>X1X#X&X&X&X%X%X%X%X=XH., 2  .P R R R ",
"R R R R R R a.(././.[.%X%X%X%X%X%X%X%X%X&X&X-XJ.8.> : r U R R R ",
"R e.e.U.!.Q. X%X%X%X%X%X%X%X%X%X&X*X*X-XG.c.v.0.X : : t U e.R R ",
"e.q.P.+X%X%X%X%X%X%X%X%X%X%X*X$XS.n.n.M.7.  X X : : : t ' R R e.",
"R r..X%X%X%X%X%X%X%X%X;XW.E.Z.V.k . X X @ : : : : : : e U R R R ",
"e.w.Y.:X%X%X%X|.~.)._.I.J ! } % * : : a +.M +.i : : 3 X.~ R R R ",
"e.R W T.,X].<Xp.R R e.R _ Z -.4 d v c #.D Z 4.@.c h y :.Z ] H e.",
"R R R R R R R R R R R K S A ;.N &.S 3.A A A A A Z $.| :.A Z L R ",
"R R R e.R R R R R R R I C A A A A A A A A A A A A 6.1.A S B T R ",
"R R e.R R R R R e.R R R I 5.V V S A 3.A 3.A A A A Z V V B T R R ",
"R R R R R R R R R R R e.R H H T G Z F F F 2.F F Z / H u.H R R R ",
"R R R R R R R R R R R R R R R R H T T T T T T T T u.R R R e.R R ",
"R R R R R R R R R R R R R R R R R R R e.e.R R R R R R R R R R R ",
"e.R R R R R R R e.e.R e.R R R R R R e.R R R R R R e.e.R R R R R "
};
