/* XPM */
static char *left[] = {
/* columns rows colors chars-per-pixel */
"32 32 11 1 ",
"  c black",
". c #571D00",
"X c #7D6812",
"o c gray31",
"O c #515151",
"+ c gray40",
"@ c #994F00",
"# c #816C17",
"$ c #007C8E",
"% c #AEAEAE",
"& c gray72",
/* pixels */
"XXX#X#XXXX#X#X#XXXXXXXXXX#XXXXXX",
"XXXXXXXXXXXXXXXXXXXXXXX#XXX#XX##",
"XXXXXXXXX#XXXXXXXXXXXXXXXXXXXXX#",
"XXXXXXX#XXXXXXXX#XXXXXXX#XXXXX#X",
"##XXXXXXXX#XX&&&&&&&XXXXXX#XXXXX",
"XXXXXXXXX#XX&%%%%%++&#XXXXX#XX#X",
"XXXXXXXXXX#&%%%%%%%++XX#XXXXXXX#",
"XXXXXXXX##X%%%%%%%%++XX#XXXXXXX#",
"XXXXXXX#XX#%%%%%%%%%++XXXXXX#XXX",
"XXXXXXXXX#   %%++%%%++XXXXXX#X#X",
"XXXXXXXXX#  %%+&&+%%++XXXXX#XXXX",
"XXXXX#XXXX%%%%+&&+%%++XXXXXXX#XX",
"XXXXXXXXXX%ooo++&+%%++XXXXXXXXXX",
"XXXXXX#XX#oooo+&&+%%++X#XXX#XXXX",
"XX#XX#XX#Xo++o+%%+%++#XXXXXXXXXX",
"#XXXXXXXXX+++o+%%+ XXX#XXXX##X#X",
"X#X##XXXX#+++ooooo #XXXXXX#XX#XX",
"XXXXXXXXXXXXo.o++o XX#XXXXXXXXXX",
"#XXXXXXXXX#Xo.o++o XXXXXXXXXXXXX",
"XXXXXXXXXXXXo.o  o XXXXXXXX#XXXX",
"X###XXXXXXXX+.o$%o XXXX#XXXXX#XX",
"#XXXXXXXXXXX+.@%$o XXXX#X#XX#XX#",
"XXXXXXXXXXXXXo+@@. X#XXXXX#XXXXX",
"#XX#XXXXXX#XXXo..+ XXXXXXXX#XXXX",
"#XXXXX#XXX#X#Xo++oXXXX#XXXXXX#X#",
"XXXXXXXXXXXXXXo++O#XXXXXXXXXXXXX",
"XXX#XXXXXXXXXXXoOoXXXXXXX##XXXXX",
"XX#XXXXX#XXXX#XXXX#X#XXXXXXXXXXX",
"XXXXXXXXXXX#XXXXXXXXX#XXXXX#XXXX",
"XXXXXXXXXXXXXXXXXXXXXXXXX#XXX#XX",
"XXXXXXXXXXXXXXXXXXX##XXXXXXXXXXX",
"#XXXXXXX##X#XXXXXX#XXXXXX##XXXXX"
};
