/* XPM */
static char *up[] = {
/* columns rows colors chars-per-pixel */
"32 32 7 1 ",
"  c black",
". c #7D6812",
"X c gray31",
"o c gray40",
"O c #816C17",
"+ c #AEAEAE",
"@ c gray72",
/* pixels */
"...O.O....O.O.O..........O......",
".......................O...O..OO",
".........O.....................O",
".......O........O.......O.....O.",
"OO........O..+o@@o+.......O.....",
".........O..++o@@o++.O.....O..O.",
"..........O+++o@@o+++..O.......O",
"........OO.@@@o@@o@@@..O.......O",
".......O..ooooo++ooooo......O...",
".........O++++oooo++++......O.O.",
".........O++++++++++++.....O....",
".....O....++++++++++++.......O..",
"..........++++++++++++..........",
"......O..Oooo++++++ooo.O...O....",
"..O..O..O..ooooooooooO..........",
"O........... oooooo ..O....OO.O.",
".O.OO....O.X        X.....O..O..",
"..........XX        XX..........",
"O.........X          X..........",
"...........          ......O....",
".OOO.......          ..O.....O..",
"O..........          ..O.O..O..O",
"...........          .....O.....",
"O..O......O          ......O....",
"O.....O...O   oXX    .O......O.O",
".............XoXXoX.............",
"...O.........XX..XX......OO.....",
"..O.....O....O....O.O...........",
"...........O.........O.....O....",
".........................O...O..",
"...................OO...........",
"O.......OO.O......O......OO....."
};
