/* XPM */
static char *wall[] = {
/* columns rows colors chars-per-pixel */
"32 32 43 1 ",
"  c #522421",
". c #5F2C23",
"X c #622E24",
"o c #632E24",
"O c #642F25",
"+ c #663025",
"@ c #6A3326",
"# c #6B3326",
"$ c #6C3326",
"% c #6C3426",
"& c #6D3426",
"* c #6E3527",
"= c #6F3627",
"- c #713727",
"; c #723728",
": c #733828",
"> c #743828",
", c #743928",
"< c #753929",
"1 c #763A29",
"2 c #783B29",
"3 c #793B29",
"4 c #793C2A",
"5 c #7A3C2A",
"6 c #7B3C2A",
"7 c #7B3D2A",
"8 c #7C3D2A",
"9 c #7D3E2A",
"0 c #7D3E2B",
"q c #7E3E2B",
"w c #7E3F2B",
"e c #7F3F2B",
"r c #793D2D",
"t c #803F2B",
"y c #80402B",
"u c #81402B",
"i c #804130",
"p c #995138",
"a c #A2573B",
"s c #A4583C",
"d c #A5593C",
"f c #A6593D",
"g c #A75A3D",
/* pixels */
"ssssssssssssssssssssssssssssssss",
"ssssssssssssssssssssssssssssssss",
"ssssssssssssssssssssssssssssssss",
"ssssssssssssssssssssssssssssssss",
"gggggggggggggggggggggggggggggggg",
"aaaaaaaaaaaaaaaaaaaaaaaaaaaaaaaa",
"iiiiiiiiiiiiiiiiiiiiiiiiiiiiiiii",
"                                ",
"                                ",
"iiiiiiiiiiiiiiiiiiiiiiiiiiiiiiii",
"aaaaaaaaaaaaaaaaaaaaaaaaaaaaaaaa",
"gggggggggggggggggggggggggggggggg",
"ssssssssssssssssssssssssssssssss",
"ssssssssssssssssssssssssssssssss",
"ssssssssssssssssssssssssssssssss",
"dddddddddddddddddddddddddddddddd",
"ffffffffffffffffffffffffffffffff",
"pppppppppppppppppppppppppppppppp",
"rrrrrrrrrrrrrrrrrrrrrrrrrrrrrrrr",
"OOOOOOOOOOOOOOOOOOOOOOOOOOOOOOOO",
"################################",
"77777777777777777777777777777777",
"yyyyyyyyyyyyyyyyyyyyyyyyyyyuuuyy",
"eeeeeeeeeeeeeeeeeeeeeeeeeeetytee",
"eeeeeeeeeeeeeeeeeeeeeeeeeew736qe",
"eeeeeeeeeeeeeeeeeeeetyteeu0:%;7t",
"eeeeeeeeeeeeeeeeeeee089wwq2#o$5y",
"eeeeeeeeeeeeeeeeeetq1=:78>#o.@4y",
"eeeeeeeeeeeeeeeeeey9-+%44&o.X&5y",
"eeeeeeeeeeeeeeeeeetq<*;67;$@&,8t",
"eeeeeeeeeeeeeeeeeeew967qq85458we",
"eeeeeeeeeeeeeeeeeeeetyteetyyytee"
};
