/* XPM */
static char *down[] = {
/* columns rows colors chars-per-pixel */
"32 32 9 1 ",
"  c black",
". c #571D00",
"X c #7D6812",
"o c gray31",
"O c gray40",
"+ c #994F00",
"@ c #816C17",
"# c #AEAEAE",
"$ c gray72",
/* pixels */
"XXX@X@XXXX@X@X@XXXXXXXXXX@XXXXXX",
"XXXXXXXXXXXXXXXXXXXXXXX@XXX@XX@@",
"XXXXXXXXX@XXXXXXXXXXXXXXXXXXXXX@",
"XXXXXXX@XXXXXXXX@XXXXXXX@XXXXX@X",
"@@XXXXXXXX@XX#O$$O#XXXXXXX@XXXXX",
"XXXXXXXXX@XX##O$$O##X@XXXXX@XX@X",
"XXXXXXXXXX@###O$$O###XX@XXXXXXX@",
"XXXXXXXX@@X###O$$O###XX@XXXXXXX@",
"XXXXXXX@XX   #O##O#   XXXXXX@XXX",
"XXXXXXXXX@#          #XXXXXX@X@X",
"XXXXXXXXX@o##      ##oXXXXX@XXXX",
"XXXXX@XXXXoO###  ###OoXXXXXXX@XX",
"XXXXXXXXXXoOO##  ##OOoXXXXXXXXXX",
"XXXXXX@XX@ooOO#  #OOooX@XXX@XXXX",
"XX@XX@XX@XXoOO#  #OOo@XXXXXXXXXX",
"@XXXXXXXXXXXoO#  #OoXX@XXXX@@X@X",
"X@X@@XXXX@XooO#..#OooXXXXX@XX@XX",
"XXXXXXXXXXooO#....#OooXXXXXXXXXX",
"@XXXXXXXXXoOO######OOoXXXXXXXXXX",
"XXXXXXXXXXXO+O#OO#O+OXXXXXX@XXXX",
"X@@@XXXXXXXO+.O##O.+OXX@XXXXX@XX",
"@XXXXXXXXXXO# O##O #OXX@X@XX@XX@",
"XXXXXXXXXXXO#  ##  #OXXXXX@XXXXX",
"@XX@XXXXXX@XO##  ##OXXXXXXX@XXXX",
"@XXXXX@XXX@X@#OooO#XXX@XXXXXX@X@",
"XXXXXXXXXXXXXoOooOoXXXXXXXXXXXXX",
"XXX@XXXXXXXXXooXXooXXXXXX@@XXXXX",
"XX@XXXXX@XXXX@XXXX@X@XXXXXXXXXXX",
"XXXXXXXXXXX@XXXXXXXXX@XXXXX@XXXX",
"XXXXXXXXXXXXXXXXXXXXXXXXX@XXX@XX",
"XXXXXXXXXXXXXXXXXXX@@XXXXXXXXXXX",
"@XXXXXXX@@X@XXXXXX@XXXXXX@@XXXXX"
};
