/* XPM */
static char *empty[] = {
/* columns rows colors chars-per-pixel */
"32 32 2 1 ",
"  c #7D6812",
". c #816C17",
/* pixels */
"   . .    . . .          .      ",
"                       .   .  ..",
"         .                     .",
"       .        .       .     . ",
"..        .               .     ",
"         .         . .     .  . ",
"          .     .   .  .       .",
"        .. .   .  .    .       .",
"       .  .  .      .       .   ",
"         . . .      .       . . ",
"         ..          .     .    ",
"     .                       .  ",
"               .                ",
"      .  .          .  .   .    ",
"  .  .  .  . . ..    .          ",
".            .  .     .    .. . ",
" . ..    .  ..     .      .  .  ",
"                     .          ",
".         .    . ..             ",
"            .              .    ",
" ...        .    .     .     .  ",
".                .     . .  .  .",
"               .    .     .     ",
".  .      .                .    ",
".     .   . .         .      . .",
"                  .             ",
"   .                     ..     ",
"  .     .    .    . .           ",
"           .         .     .    ",
"                         .   .  ",
"                   ..           ",
".       .. .      .      ..     "
};
