/* XPM */
static char *right[] = {
/* columns rows colors chars-per-pixel */
"32 32 11 1 ",
"  c black",
". c #571D00",
"X c #7D6812",
"o c gray31",
"O c #515151",
"+ c gray40",
"@ c #994F00",
"# c #816C17",
"$ c #007C8E",
"% c #AEAEAE",
"& c gray72",
/* pixels */
"XXX#X#XXXX#X#X#XXXXXXXXXX#XXXXXX",
"XXXXXXXXXXXXXXXXXXXXXXX#XXX#XX##",
"XXXXXXXXX#XXXXXXXXXXXXXXXXXXXXX#",
"XXXXXXX#XXXXXXXX#XXXXXXX#XXXXX#X",
"##XXXXXXXX#X&&&&&&&XXXXXXX#XXXXX",
"XXXXXXXXX#X&++%%%%%&X#XXXXX#XX#X",
"XXXXXXXXXX#++%%%%%%%&XX#XXXXXXX#",
"XXXXXXXX##X++%%%%%%%%XX#XXXXXXX#",
"XXXXXXX#XX++%%%%%%%%%XXXXXXX#XXX",
"XXXXXXXXX#++%%%++%%   XXXXXX#X#X",
"XXXXXXXXX#++%%+&&+%%  XXXXX#XXXX",
"XXXXX#XXXX++%%+&&+%%%%XXXXXXX#XX",
"XXXXXXXXXX++%%+&++ooo%XXXXXXXXXX",
"XXXXXX#XX#++%%+&&+ooooX#XXX#XXXX",
"XX#XX#XX#XX++%+%%+o++oXXXXXXXXXX",
"#XXXXXXXXXXXX +%%+o+++#XXXX##X#X",
"X#X##XXXX#XX# ooooo+++XXXX#XX#XX",
"XXXXXXXXXXXXX o++o.oX#XXXXXXXXXX",
"#XXXXXXXXX#XX o++o.oXXXXXXXXXXXX",
"XXXXXXXXXXXX# o  o.oXXXXXXX#XXXX",
"X###XXXXXXXX# o%$o.+XXX#XXXXX#XX",
"#XXXXXXXXXXXX o$%@.+XXX#X#XX#XX#",
"XXXXXXXXXXXXX .@@+oX#XXXXX#XXXXX",
"#XX#XXXXXX#XX +..oXXXXXXXXX#XXXX",
"#XXXXX#XXX#X#Xo++oXXXX#XXXXXX#X#",
"XXXXXXXXXXXXXXO++o#XXXXXXXXXXXXX",
"XXX#XXXXXXXXXXoOoXXXXXXXX##XXXXX",
"XX#XXXXX#XXXX#XXXX#X#XXXXXXXXXXX",
"XXXXXXXXXXX#XXXXXXXXX#XXXXX#XXXX",
"XXXXXXXXXXXXXXXXXXXXXXXXX#XXX#XX",
"XXXXXXXXXXXXXXXXXXX##XXXXXXXXXXX",
"#XXXXXXX##X#XXXXXX#XXXXXX##XXXXX"
};
